<svg width="21" height="20" viewBox="0 0 21 20" fill="none" xmlns="http://www.w3.org/2000/svg">
<path d="M11.7767 4.51261C11.7767 3.96032 11.329 3.51261 10.7767 3.51261H9.19642L9.83221 2.24112L13.1388 1.29642C13.4515 1.20708 13.6325 0.881163 13.5432 0.568465V0.568465C13.4539 0.255774 13.1279 0.0747136 12.8152 0.164055L9.01051 1.25113L7.87979 3.51261H0.999999C0.447715 3.51261 0 3.96032 0 4.51261V5.45678C0 6.00907 0.447715 6.45678 1 6.45678H10.7767C11.329 6.45678 11.7767 6.00907 11.7767 5.45678V4.51261Z" fill="#BDBDBD"/>
<path d="M8.24454 15.8781H18.8436V17.0558H8.24454V15.8781Z" fill="#BDBDBD"/>
<path d="M5.88739 14.7007C5.88739 11.7955 7.80993 9.33108 10.4495 8.51252V8.51252C10.4842 8.03839 10.1088 7.63464 9.63345 7.63464H2.84299C2.00438 7.63464 1.34679 8.35473 1.42272 9.18989L2.24013 18.1813C2.33378 19.2114 3.19751 20.0002 4.23192 20.0002H6.20426C6.00315 19.6535 5.88739 19.2514 5.88739 18.8225V14.7007Z" fill="#BDBDBD"/>
<path d="M7.0652 14.7005H20.0196C20.0196 11.7783 17.6422 9.40094 14.7201 9.40094H12.3647C9.44256 9.40094 7.0652 11.7783 7.0652 14.7005Z" fill="#BDBDBD"/>
<path d="M7.0652 18.8224C7.0652 19.4718 7.5935 20 8.24287 20H18.8407C19.49 20 20.0183 19.4718 20.0183 18.8224V18.2335H7.0652V18.8224Z" fill="#BDBDBD"/>
</svg>
